<?xml version="1.0" encoding="UTF-8" standalone="no"?>
<svg width="20px" height="20px" viewBox="0 0 20 20" version="1.1" xmlns="http://www.w3.org/2000/svg" xmlns:xlink="http://www.w3.org/1999/xlink" xmlns:sketch="http://www.bohemiancoding.com/sketch/ns">
    <!-- Generator: Sketch 3.3.2 (12043) - http://www.bohemiancoding.com/sketch -->
    <title>Untitled 5</title>
    <desc>Created with Sketch.</desc>
    <defs></defs>
    <g id="Page-1" stroke="none" stroke-width="1" fill="none" fill-rule="evenodd" sketch:type="MSPage">
        <g id="eliminar" sketch:type="MSLayerGroup" fill="#444444">
            <path d="M3,20 C2.4,20 2,19.6 2,19 L2,7 L4,7 L4,18 L16,18 L16,7 L18,7 L18,19 C18,19.6 17.6,20 17,20 L3,20 Z" id="Shape" sketch:type="MSShapeGroup"></path>
            <path d="M19,3 L13,3 L13,1 C13,0.4 12.6,0 12,0 L8,0 C7.4,0 7,0.4 7,1 L7,3 L1,3 C0.4,3 0,3.4 0,4 C0,4.6 0.4,5 1,5 L19,5 C19.6,5 20,4.6 20,4 C20,3.4 19.6,3 19,3 L19,3 Z" id="Shape" sketch:type="MSShapeGroup"></path>
        </g>
    </g>
</svg>