<?xml version="1.0" encoding="UTF-8" standalone="no"?>
<svg width="17px" height="16px" viewBox="0 0 17 16" version="1.1" xmlns="http://www.w3.org/2000/svg" xmlns:xlink="http://www.w3.org/1999/xlink" xmlns:sketch="http://www.bohemiancoding.com/sketch/ns">
    <!-- Generator: Sketch 3.3.2 (12043) - http://www.bohemiancoding.com/sketch -->
    <title>Untitled 5</title>
    <desc>Created with Sketch.</desc>
    <defs></defs>
    <g id="Page-1" stroke="none" stroke-width="1" fill="none" fill-rule="evenodd" sketch:type="MSPage">
        <g id="Group-Copy-7" sketch:type="MSLayerGroup" transform="translate(1.000000, 1.000000)" stroke="#444444" stroke-width="1.5">
            <path d="M13,0 L2,0" id="Shape" sketch:type="MSShapeGroup"></path>
            <path d="M15,3.65517241 C15,3.34482759 14.8,3.13793103 14.5,3.13793103 L0.5,3.13793103 C0.2,3.13793103 0,3.34482759 0,3.65517241 L0,13.4827586 C0,13.7931034 0.2,14 0.5,14 L14.5,14 C14.8,14 15,13.7931034 15,13.4827586 L15,3.65517241 L15,3.65517241 Z" id="Shape" sketch:type="MSShapeGroup"></path>
            <path d="M4.5,7.27586207 L4.5,8.82758621 C4.5,9.13793103 4.7,9.34482759 5,9.34482759 L10,9.34482759 C10.3,9.34482759 10.5,9.13793103 10.5,8.82758621 L10.5,7.27586207" id="Shape" sketch:type="MSShapeGroup"></path>
        </g>
    </g>
</svg>