<?xml version="1.0" encoding="UTF-8" standalone="no"?>
<svg width="15px" height="14px" viewBox="0 0 15 14" version="1.1" xmlns="http://www.w3.org/2000/svg" xmlns:xlink="http://www.w3.org/1999/xlink" xmlns:sketch="http://www.bohemiancoding.com/sketch/ns">
    <!-- Generator: Sketch 3.3.2 (12043) - http://www.bohemiancoding.com/sketch -->
    <title>Untitled 6</title>
    <desc>Created with Sketch.</desc>
    <defs></defs>
    <g id="Page-1" stroke="none" stroke-width="1" fill="none" fill-rule="evenodd" sketch:type="MSPage">
        <g id="Shape-+-Shape-+-Shape-Copy-2" sketch:type="MSLayerGroup" fill="#444444">
            <path d="M3.75,14 L0.75,14 C0.3,14 0,13.6888889 0,13.2222222 L0,7.77777778 C0,7.31111111 0.3,7 0.75,7 L3.75,7 C4.2,7 4.5,7.31111111 4.5,7.77777778 L4.5,13.2222222 C4.5,13.6888889 4.2,14 3.75,14 L3.75,14 Z M1.5,12.4444444 L3,12.4444444 L3,8.55555556 L1.5,8.55555556 L1.5,12.4444444 L1.5,12.4444444 Z" id="Shape" sketch:type="MSShapeGroup"></path>
            <path d="M8.25,3.88888889 L6.75,3.88888889 C6.3,3.88888889 6,4.2 6,4.66666667 L6,13.2222222 C6,13.6888889 6.3,14 6.75,14 L8.25,14 C8.7,14 9,13.6888889 9,13.2222222 L9,4.66666667 C9,4.2 8.7,3.88888889 8.25,3.88888889 L8.25,3.88888889 Z" id="Shape" sketch:type="MSShapeGroup"></path>
            <path d="M14.25,14 L11.25,14 C10.8,14 10.5,13.6888889 10.5,13.2222222 L10.5,0.777777778 C10.5,0.311111111 10.8,0 11.25,0 L14.25,0 C14.7,0 15,0.311111111 15,0.777777778 L15,13.2222222 C15,13.6888889 14.7,14 14.25,14 L14.25,14 Z M12,12.4444444 L13.5,12.4444444 L13.5,1.55555556 L12,1.55555556 L12,12.4444444 L12,12.4444444 Z" id="Shape" sketch:type="MSShapeGroup"></path>
        </g>
    </g>
</svg>