<?xml version="1.0" encoding="UTF-8" standalone="no"?>
<svg width="17px" height="16px" viewBox="0 0 17 16" version="1.1" xmlns="http://www.w3.org/2000/svg" xmlns:xlink="http://www.w3.org/1999/xlink" xmlns:sketch="http://www.bohemiancoding.com/sketch/ns">
    <!-- Generator: Sketch 3.3.2 (12043) - http://www.bohemiancoding.com/sketch -->
    <title>Untitled 4</title>
    <desc>Created with Sketch.</desc>
    <defs></defs>
    <g id="Page-1" stroke="none" stroke-width="1" fill="none" fill-rule="evenodd" sketch:type="MSPage">
        <path d="M14,1 L3,1" id="Shape" stroke="#FFFFFF" stroke-width="1.5" sketch:type="MSShapeGroup"></path>
        <path d="M16,4.65517241 C16,4.34482759 15.8,4.13793103 15.5,4.13793103 L1.5,4.13793103 C1.2,4.13793103 1,4.34482759 1,4.65517241 L1,14.4827586 C1,14.7931034 1.2,15 1.5,15 L15.5,15 C15.8,15 16,14.7931034 16,14.4827586 L16,4.65517241 L16,4.65517241 Z" id="Shape" stroke="#FFFFFF" stroke-width="1.5" sketch:type="MSShapeGroup"></path>
        <path d="M5.5,8.27586207 L5.5,9.82758621 C5.5,10.137931 5.7,10.3448276 6,10.3448276 L11,10.3448276 C11.3,10.3448276 11.5,10.137931 11.5,9.82758621 L11.5,8.27586207" id="Shape" stroke="#FFFFFF" stroke-width="1.5" sketch:type="MSShapeGroup"></path>
    </g>
</svg>